<mxfile host="app.diagrams.net" modified="2021-02-21T01:34:11.491Z" agent="5.0 (Windows NT 10.0; Win64; x64) AppleWebKit/537.36 (KHTML, like Gecko) Chrome/88.0.4324.182 Safari/537.36" etag="ZGrf8oI8v3aM_8WxQ-9I" version="14.4.2" type="github">
  <diagram id="BXOqiAN7IwBygZb9TsGg" name="Page-1">
    <mxGraphModel dx="588" dy="280" grid="1" gridSize="10" guides="1" tooltips="1" connect="1" arrows="1" fold="1" page="1" pageScale="1" pageWidth="827" pageHeight="1169" math="0" shadow="0">
      <root>
        <mxCell id="0" />
        <mxCell id="1" parent="0" />
      </root>
    </mxGraphModel>
  </diagram>
</mxfile>
